<svg version="1.1" xmlns="http://www.w3.org/2000/svg" xmlns:xlink="http://www.w3.org/1999/xlink" width="448.5" height="37.90129" viewBox="0,0,448.5,37.90129"><g transform="translate(-25.5,-134)"><g data-paper-data="{&quot;isPaintingLayer&quot;:true}" fill="#ffffff" fill-rule="nonzero" stroke-linejoin="miter" stroke-miterlimit="10" stroke-dasharray="" stroke-dashoffset="0" style="mix-blend-mode: normal"><path d="M26.5,160.5v-26.5h446.5v26.5z" stroke="none" stroke-width="0" stroke-linecap="butt"/><path d="M277.92172,160.25413c0,0 2.00563,5.95952 13.98046,5.98053c12.15988,0.02134 13.7027,-5.86171 13.7027,-5.86171" stroke="#4d4d4d" stroke-width="2" stroke-linecap="round"/><path d="M305.69747,160.25413c0,0 2.00563,9.28111 13.98045,9.31384c12.15988,0.03323 13.7027,-9.12879 13.7027,-9.12879" stroke="#4d4d4d" stroke-width="2" stroke-linecap="round"/><path d="M249.96082,160.25413c0,0 2.00563,10.60975 13.98045,10.64716c12.15988,0.03799 13.7027,-10.43562 13.7027,-10.43562" stroke="#4d4d4d" stroke-width="2" stroke-linecap="round"/><path d="M333.65837,160.25413c0,0 2.00563,7.95247 13.98046,7.98051c12.15988,0.02847 13.7027,-7.82196 13.7027,-7.82196" stroke="#4d4d4d" stroke-width="2" stroke-linecap="round"/><path d="M389.5802,160.25413c0,0 2.00563,4.96304 13.98046,4.98054c12.15988,0.01777 13.7027,-4.88159 13.7027,-4.88159" stroke="#4d4d4d" stroke-width="2" stroke-linecap="round"/><path d="M417.35594,160.25413c0,0 2.00563,9.61327 13.98046,9.64717c12.15988,0.03442 13.7027,-9.4555 13.7027,-9.4555" stroke="#4d4d4d" stroke-width="2" stroke-linecap="round"/><path d="M361.61929,160.25413c0,0 2.00563,8.61679 13.98046,8.64718c12.15988,0.03085 13.7027,-8.47538 13.7027,-8.47538" stroke="#4d4d4d" stroke-width="2" stroke-linecap="round"/><path d="M445.31685,160.25413c0,0 2.00563,7.95247 13.98046,7.98051c12.15988,0.02847 13.7027,-7.82196 13.7027,-7.82196" stroke="#4d4d4d" stroke-width="2" stroke-linecap="round"/><path d="M54.46092,160.25413c0,0 2.00564,10.60975 13.98046,10.64716c12.15989,0.03799 13.70269,-10.43563 13.70269,-10.43563" stroke="#4d4d4d" stroke-width="2" stroke-linecap="round"/><path d="M82.23665,160.25413c0,0 2.00564,7.95247 13.98046,7.98051c12.15989,0.02847 13.70269,-7.82197 13.70269,-7.82197" stroke="#4d4d4d" stroke-width="2" stroke-linecap="round"/><path d="M54.18315,160.41268c0,0 -1.54281,7.85044 -13.70269,7.82197c-11.97482,-0.02804 -13.98045,-7.98051 -13.98045,-7.98051" stroke="#4d4d4d" stroke-width="2" stroke-linecap="round"/><path d="M110.19757,160.25413c0,0 2.00564,7.95247 13.98046,7.98051c12.15989,0.02847 13.7027,-7.82197 13.7027,-7.82197" stroke="#4d4d4d" stroke-width="2" stroke-linecap="round"/><path d="M166.11939,160.25413c0,0 2.00564,6.956 13.98046,6.98052c12.15989,0.02491 13.7027,-6.84184 13.7027,-6.84184" stroke="#4d4d4d" stroke-width="2" stroke-linecap="round"/><path d="M193.89513,160.25413c0,0 2.00563,9.94543 13.98045,9.9805c12.15989,0.03561 13.7027,-9.78221 13.7027,-9.78221" stroke="#4d4d4d" stroke-width="2" stroke-linecap="round"/><path d="M138.15848,160.25413c0,0 2.00563,10.27759 13.98045,10.31383c12.15989,0.0368 13.7027,-10.10892 13.7027,-10.10892" stroke="#4d4d4d" stroke-width="2" stroke-linecap="round"/><path d="M221.85604,160.25413c0,0 2.00564,7.95247 13.98046,7.98051c12.15989,0.02847 13.7027,-7.82197 13.7027,-7.82197" stroke="#4d4d4d" stroke-width="2" stroke-linecap="round"/></g></g></svg>